<svg width="57" height="61" viewBox="0 0 57 61" fill="none" xmlns="http://www.w3.org/2000/svg">
<path d="M50.8773 0.406254L24.1492 8.44146C20.9069 9.34658 18.2848 12.6623 18.2848 15.8486V43.1776C18.2848 43.1776 18.2848 43.547 18.2848 43.5562C18.2848 43.5562 16.3488 42.2725 12.0351 42.8728C5.7008 43.7594 0.560059 48.5344 0.560059 53.5495C0.560059 58.5645 5.7008 61.6308 12.0351 60.7442C18.3788 59.8668 23.0214 55.2396 23.0214 50.2245C23.0214 50.2245 23.0214 28.7881 23.0214 26.5622C23.0214 24.3456 25.7375 23.3851 25.7375 23.3851L49.3736 16.1072C49.3736 16.1072 51.9863 15.2483 51.9863 17.6219C51.9863 20.0048 51.9863 36.6109 51.9863 36.6109C51.9863 36.6109 51.9863 36.6201 51.9863 36.6293C51.9863 36.6293 49.5804 35.2624 45.2667 35.7796C38.9324 36.537 33.7916 41.2103 33.7916 46.2254C33.7916 51.2405 38.9324 54.4084 45.2667 53.651C51.601 52.9029 56.7417 48.2204 56.7417 43.2053V4.51622C56.7417 1.33908 54.1103 -0.508098 50.8773 0.406254Z" fill="#CD20EC"/>
</svg>
